<?xml version="1.0" encoding="UTF-8" standalone="no"?>
<!DOCTYPE svg PUBLIC "-//W3C//DTD SVG 1.1//EN" "http://www.w3.org/Graphics/SVG/1.1/DTD/svg11.dtd">
<svg width="100%" height="100%" viewBox="0 0 32 32" version="1.1" xmlns="http://www.w3.org/2000/svg" xmlns:xlink="http://www.w3.org/1999/xlink" xml:space="preserve" xmlns:serif="http://www.serif.com/" style="fill-rule:evenodd;clip-rule:evenodd;stroke-linejoin:round;stroke-miterlimit:1.41421;">
    <g transform="matrix(0.115687,0,0,0.115687,-5.43402,-2.34169)">
        <path d="M256.914,148.818C256.914,148.818 258.14,163.13 259.368,179.487C260.594,195.844 278.996,204.227 281.245,207.703C283.494,211.179 287.788,248.595 287.788,248.595C287.788,248.595 286.97,252.684 283.698,255.342C280.427,258 261.208,255.342 261.208,255.342C260.39,245.324 266.115,249.822 270.204,238.985C274.293,228.149 262.843,213.632 251.802,207.499C240.762,201.364 229.516,188.483 229.516,188.483C230.129,194.208 242.193,208.316 241.17,210.361C240.148,212.405 228.494,231.42 226.041,236.94C223.587,242.461 220.929,244.71 220.929,244.71C213.364,248.391 197.211,241.848 197.211,241.848C197.416,237.963 201.3,231.011 210.91,229.785C220.52,228.558 216.226,225.287 220.111,215.677C223.996,206.067 213.772,196.662 207.025,189.097C200.278,181.532 200.278,176.625 197.825,168.65C195.371,160.677 185.353,162.108 185.353,162.108C174.312,177.852 139.145,183.167 137.1,183.985C135.055,184.803 136.282,227.126 136.282,227.126C136.282,227.126 136.486,251.253 136.078,257.591C135.668,263.93 132.193,269.859 127.899,270.677C123.605,271.495 109.293,269.859 109.293,269.859C109.293,269.859 106.635,264.338 115.427,258C124.219,251.662 119.516,237.145 118.903,231.011C118.289,224.877 111.542,185.007 111.542,185.007L106.635,234.487C106.635,234.487 98.865,253.093 95.594,256.978C92.322,260.863 81.486,261.68 78.624,261.68C75.761,261.68 72.898,259.84 72.898,259.84L69.423,259.432C68.605,253.911 72.285,247.573 80.463,244.915C88.642,242.257 90.308,232.166 91.842,226.646C93.375,221.125 91.504,175.193 87.824,163.334C84.144,151.476 86.734,137.3 84.007,128.304C81.281,119.308 76.272,102.61 74.636,99.85C73.001,97.09 62.573,97.805 58.177,96.885C53.781,95.965 53.986,92.081 53.986,92.081C53.986,92.081 52.555,93.92 50.203,93.205C47.852,92.489 47.443,87.48 47.034,85.129C46.625,82.777 48.363,79.608 48.363,79.608C45.194,75.519 49.931,71.6 53.338,71.055C56.746,70.51 60.835,67.102 60.835,67.102C60.29,53.335 75.965,47.201 79.237,46.383C82.508,45.565 98.661,47.406 101.933,49.655C105.204,51.904 125.65,64.171 127.899,66.012C130.147,67.852 128.308,72.145 129.126,77.871C129.942,83.595 120.743,91.569 120.743,91.569C120.743,91.569 123.401,95.045 130.966,100.565C138.531,106.085 180.037,106.29 180.037,106.29C182.975,107.071 198.259,103.055 218.193,102.135C238.126,101.215 256.527,119.002 258.674,125.136C258.674,125.136 282.676,174.171 306.496,174.478C324.987,174.716 327.063,177.578 319.396,180.031C311.729,182.484 290.729,191.821 256.914,148.818Z" style="fill-rule:nonzero;"/>
    </g>
</svg>
